<mxfile host="app.diagrams.net" modified="2020-12-17T21:38:05.191Z" agent="5.0 (Windows)" etag="gV20N6rx2FUoiaxpj91K" version="14.0.4" type="github">
  <diagram id="Q__9c5sCGok6glRROYgQ" name="Page-1">
    <mxGraphModel dx="371" dy="942" grid="1" gridSize="10" guides="1" tooltips="1" connect="1" arrows="1" fold="1" page="1" pageScale="1" pageWidth="827" pageHeight="1169" math="0" shadow="0">
      <root>
        <mxCell id="0" />
        <mxCell id="1" parent="0" />
        <mxCell id="lIn7k-M0Dq_0EgEgX-XU-1" value="&lt;font style=&quot;font-size: 36px&quot;&gt;MiniRPG - Ingame&lt;/font&gt;" style="text;html=1;strokeColor=none;fillColor=none;align=center;verticalAlign=middle;whiteSpace=wrap;rounded=0;" vertex="1" parent="1">
          <mxGeometry x="170" y="470" width="340" height="20" as="geometry" />
        </mxCell>
      </root>
    </mxGraphModel>
  </diagram>
</mxfile>
